<svg xmlns="http://www.w3.org/2000/svg" xmlns:xlink="http://www.w3.org/1999/xlink" viewBox="0 0 297.01 361.97"><defs><style>.a,.c{fill:#0a1018;}.a{stroke:#0a1018;}.a,.e,.j,.l,.p,.r,.s,.t{stroke-miterlimit:10;}.a,.e,.s{stroke-width:3px;}.b{font-size:12px;font-family:MyriadPro-Bold, Myriad Pro;font-weight:700;}.b,.q{fill:#f15a22;}.d{fill:#063e51;}.e,.j,.l{fill:none;}.e,.l,.p,.r,.s,.t{stroke:#231f20;}.f{fill:#b62025;}.g{fill:#ef4848;}.h{fill:#f5949a;}.i{fill:#f2adad;}.j{stroke:#000;}.k{fill:#fef59f;}.m{fill:#1f71b2;}.n,.t{fill:#e2e9ed;}.o{fill:url(#a);}.p{fill:#529cd5;}.r{fill:url(#b);}.s{fill:url(#c);}</style><linearGradient id="a" x1="-26.8" y1="185.6" x2="258.49" y2="71.99" gradientUnits="userSpaceOnUse"><stop offset="0" stop-color="#f15b24"/><stop offset="0.66" stop-color="#fded98" stop-opacity="0.92"/><stop offset="0.66" stop-color="#fded98" stop-opacity="0.93"/><stop offset="0.74" stop-color="#fced97" stop-opacity="0.98"/><stop offset="0.81" stop-color="#fced97"/><stop offset="0.83" stop-color="#fbe793"/><stop offset="0.87" stop-color="#fad788"/><stop offset="0.91" stop-color="#f7bc76"/><stop offset="0.95" stop-color="#f2975c"/><stop offset="1" stop-color="#ed683c"/><stop offset="1" stop-color="#ee6435" stop-opacity="0.87"/><stop offset="1" stop-color="#ef612f" stop-opacity="0.75"/><stop offset="1" stop-color="#f05e2a" stop-opacity="0.66"/><stop offset="1" stop-color="#f05c27" stop-opacity="0.59"/><stop offset="1" stop-color="#f15b24" stop-opacity="0.54"/><stop offset="1" stop-color="#f15a22" stop-opacity="0.51"/><stop offset="1" stop-color="#f15a22" stop-opacity="0.5"/></linearGradient><linearGradient id="b" x1="163.1" y1="167.17" x2="235.49" y2="138.34" gradientUnits="userSpaceOnUse"><stop offset="0" stop-color="#f15b24"/><stop offset="0.09" stop-color="#f2652c"/><stop offset="0.25" stop-color="#f47f40"/><stop offset="0.46" stop-color="#f7aa62"/><stop offset="0.7" stop-color="#fbe590"/><stop offset="0.73" stop-color="#fced97"/><stop offset="0.73" stop-color="#fced97" stop-opacity="0.98"/><stop offset="0.74" stop-color="#fded98" stop-opacity="0.92"/><stop offset="0.79" stop-color="#fce894" stop-opacity="0.92"/><stop offset="0.84" stop-color="#fbd88a" stop-opacity="0.93"/><stop offset="0.89" stop-color="#f7bf78" stop-opacity="0.95"/><stop offset="0.94" stop-color="#f39b5f" stop-opacity="0.97"/><stop offset="0.99" stop-color="#ee6e40"/><stop offset="1" stop-color="#ed683c"/><stop offset="1" stop-color="#ee6435" stop-opacity="0.87"/><stop offset="1" stop-color="#ef612f" stop-opacity="0.75"/><stop offset="1" stop-color="#f05e2a" stop-opacity="0.66"/><stop offset="1" stop-color="#f05c27" stop-opacity="0.59"/><stop offset="1" stop-color="#f15b24" stop-opacity="0.54"/><stop offset="1" stop-color="#f15a22" stop-opacity="0.51"/><stop offset="1" stop-color="#f15a22" stop-opacity="0.5"/></linearGradient><linearGradient id="c" x1="111.63" y1="171.15" x2="113.05" y2="170.58" xlink:href="#a"/></defs><title>MBL Logo 2 Bomb</title><path class="a" d="M121.55,318.17,112.9,328s.39,6.68,6.68,5.89l8.25-9.63Z" transform="translate(-16.8 -1.2)"/><text class="b" transform="translate(8.89 344.84) rotate(-50.21)">0</text><text class="b" transform="translate(13.07 339.8) rotate(-46.78)">1</text><text class="b" transform="translate(17.51 335.05) rotate(-42.57)">1</text><text class="b" transform="translate(22.25 330.66) rotate(-36.92)">0</text><text class="b" transform="translate(27.33 326.78) rotate(-28.78)">1</text><text class="b" transform="translate(32.78 323.68) rotate(-16.35)">0</text><text class="b" transform="translate(38.59 321.82) rotate(2.2)">0</text><text class="b" transform="matrix(0.91, 0.42, -0.42, 0.91, 44.57, 321.91)">1</text><text class="b" transform="translate(50.09 324.4) rotate(43.96)">1</text><text class="b" transform="translate(54.53 329.01) rotate(52)">0</text><text class="b" transform="matrix(0.72, 0.69, -0.69, 0.72, 59.11, 334.85)">1</text><text class="b" transform="translate(64.92 340.28) rotate(29.63)">0</text><text class="b" transform="matrix(0.99, 0.11, -0.11, 0.99, 72.74, 344.32)">1</text><text class="b" transform="matrix(0.96, -0.3, 0.3, 0.96, 81.56, 344.78)">0</text><text class="b" transform="matrix(0.85, -0.52, 0.52, 0.85, 89.08, 342.2)">0</text><text class="b" transform="matrix(0.77, -0.63, 0.63, 0.77, 95.32, 338.3)">1</text><path class="c" d="M100.85,194.32S64.11,269.17,128,321.83c0,0,80.16,65.62,150.1-3.73,0,0,80.55-74.26-3.14-161.1" transform="translate(-16.8 -1.2)"/><path class="d" d="M307,217.85s8.17,29.33-8.67,61.5c0,0-2.5,4.83-1.83-.83,0,0,13.67-33.33,3.17-51.67,0,0,5-18.17-.83-28.67C298.88,198.18,306,211,307,217.85Z" transform="translate(-16.8 -1.2)"/><path class="d" d="M153,333.54s-27.94-12.11-42.34-45.44c0,0-2.18-5,1.8-.9,0,0,17.3,31.6,38.16,35,0,0,11,15.32,22.8,17.39C173.45,339.57,159,337.06,153,333.54Z" transform="translate(-16.8 -1.2)"/><path class="e" d="M275.11,156.8c71.71,69.55,17.68,145,17.68,145C222.85,395.7,131.3,325,131.3,325,61,272.91,100.65,194.13,100.65,194.13" transform="translate(-16.8 -1.2)"/><path class="f" d="M255.52,233.56s-7.18,1.35-21.64,1.88c-6.14.22-11.38.81-22,.06a144.28,144.28,0,0,1-17.18-3c-9.19-2.27-17.63-4.11-17.93,2,0,0,2.59,44.77,14,60.47l6.48,6.88s33.79,16.11,55.6-12.18c0,0,5.19-6.3,12.46-43.23a23.9,23.9,0,0,0,.61-11.08S265.46,231.49,255.52,233.56Z" transform="translate(-16.8 -1.2)"/><path class="g" d="M181.81,269.69s29.61-27.12,75.19,8.44c0,0-2.12,7.91-4,11.09,0,0-19.75,4.91-66.5-2.28Z" transform="translate(-16.8 -1.2)"/><path class="c" d="M194.27,278.87s11.06-19.81,31.38-2C225.65,276.87,215.83,285.49,194.27,278.87Z" transform="translate(-16.8 -1.2)"/><path class="h" d="M187.42,288.08s2.42-14.75,27.25-9.42c0,0,19.46-9.48,38,10.88,0,0-7.21.38-18.21,5.38l-36.77,7S185.5,289.25,187.42,288.08Z" transform="translate(-16.8 -1.2)"/><path class="i" d="M197.58,302.25s16.92-25.5,36.33-8.5c0,0,8.92-12,18.42-4.25,0,0,24.54,28.69,13.79,55.38,0,0-11,16.13-27.44,13.69,0,0-20.78-.59-35.19-33.56a30.17,30.17,0,0,1-1.67-12.58S201.67,308.42,197.58,302.25Z" transform="translate(-16.8 -1.2)"/><path class="j" d="M213.79,278.5c15.83-5.21,24.67.63,24.67.63C265.92,293.25,268.75,327,268.75,327c4.5,25.5-22.92,31.42-22.92,31.42-30.67,4.08-43.58-37.58-43.58-37.58a13.43,13.43,0,0,1-.58-7.17C203.17,306.42,192,296,192,296s-5.44-7-4.93-8.53c5-14.55,25.47-9.3,25.47-9.3a35.29,35.29,0,0,1,26,27.67" transform="translate(-16.8 -1.2)"/><path class="k" d="M187.25,230.83a118,118,0,0,0,39,5.28c3-.11,6-.36,9-.44,3.27-.08,6.21-.14,9.45-.48,1.68-.18,3.24-.29,4.89-.53,2.83-.42,5.58-.91,7.94-1.5a12.11,12.11,0,0,1,5.48.08s2.28-.07,3.06,3.27A4.6,4.6,0,0,1,266,238a3,3,0,0,1-.47.67l-14.34,27.67L240,239l-8.84,17.68-13.75-17.88-9,11.79-9.23-13-10.81,22.2-10.9-21.71a5.89,5.89,0,0,1,.67-6.61A13,13,0,0,1,187.25,230.83Z" transform="translate(-16.8 -1.2)"/><polyline class="l" points="160.02 236.4 171.36 258.88 182.2 236.97 191.45 249.63 200.36 238.05 214.2 255.97 223.11 238.55 234.11 265.38 249.55 236.38"/><path class="l" d="M187.2,287.75s-8.62-16-10.53-53.25c0,0,0-6.67,11-3.58A98.62,98.62,0,0,0,221.08,236a275.3,275.3,0,0,0,35.2-2.54s11.3-2.88,9.88,5.46c0,0-3,29.22-13.29,51.05" transform="translate(-16.8 -1.2)"/><path class="m" d="M230.71,178.29s3.35,33.85,19.33,33.13c0,0,13.13-.08,11.51-18.37A92.08,92.08,0,0,0,255,170.63C251,161.38,236.88,177.61,230.71,178.29Z" transform="translate(-16.8 -1.2)"/><path class="m" d="M180,183.21s3.35,33.85,19.33,33.13c0,0,13.13-.08,11.51-18.37a97.88,97.88,0,0,0-6.51-22.41C201.38,168.63,186.17,182.52,180,183.21Z" transform="translate(-16.8 -1.2)"/><path class="n" d="M233.83,192.83s7.67-16,26.5-5.75c0,0,6.5,19.5-8.5,23.83C251.83,210.92,239.75,214.58,233.83,192.83Z" transform="translate(-16.8 -1.2)"/><path class="n" d="M182.83,197.83s7.67-16,26.5-5.75c0,0,6.5,19.5-8.5,23.83C200.83,215.92,188.75,219.58,182.83,197.83Z" transform="translate(-16.8 -1.2)"/><ellipse cx="202.29" cy="202.63" rx="6.04" ry="8.71" transform="translate(-54.51 45.29) rotate(-12)"/><ellipse cx="252.96" cy="197.46" rx="6.04" ry="8.71" transform="translate(-52.33 55.71) rotate(-12)"/><path class="j" d="M179.81,183.56s3.87,33.44,19.94,32.25c0,0,10.75.19,11.13-15.5,0,0,0-6.81-4.19-19.25" transform="translate(-16.8 -1.2)"/><path class="j" d="M230.81,178.19s3.81,34.25,19.87,33.06c0,0,10.75.19,11.12-15.5,0,0-.44-13.51-6.44-25.19" transform="translate(-16.8 -1.2)"/><path class="o" d="M113.32,40.94c-3.14,1.79-59.57,33.88-67.74,36.57a1.28,1.28,0,0,1-.42.06,28.5,28.5,0,0,0-10.4,2.92,9.54,9.54,0,0,0-3.9,12.42c1.13,2.38,3.88,5.71,6.93,9a1.81,1.81,0,0,0,.31.27c3.52,2.39,62.07,41.13,69.41,58.22.1.23.29,1.81.43,2l2.94,3.73c.93,1.31.42,3.84-1.12,3.38-8.25-2.5-23.21-2.09-32.62.5,0,0-19,3.75-19,28.88a1.72,1.72,0,0,0,0,.37c.52,2,2.73,19.11,13.6,9,.15-.14,3.37-3.6,3.5-3.74,2-2.27,15.5-16,70.18-18.88a1.81,1.81,0,0,0,.63-.15c2.89-1.26,27.09-11.39,62-12.11,0,0,54.68-2.87,71.32-23.52,0,0,15.69-13.23-4-32.55a1.91,1.91,0,0,0-.84-.48c-3.34-.89-23.13-5.18-45.17,10.56a1.92,1.92,0,0,1-2.32,0L225,125.66a3.61,3.61,0,0,1-1-1.17l-8-18.62c-.19-.37-.57-4.34-.62-4.75-.43-3.32-4.07-17.32-2.88-52.23l.38-20a1.9,1.9,0,0,1,.1-.58c.79-2.32,6-18.62,0-23.53a2,2,0,0,0-.27-.19c-1.28-.74-10.37-5.44-18.85,3.79a1.6,1.6,0,0,1-.26.23c-1.69,1.2-18.55,13-29.45,13.84a1.73,1.73,0,0,0-.46.1L113.6,40.81A1.84,1.84,0,0,0,113.32,40.94Z" transform="translate(-16.8 -1.2)"/><path class="p" d="M109.05,163.61l7.07,13.19s64.71-4,108-47a3,3,0,0,0,.53-3.47l-7.22-13.94S169.09,150.8,109.05,163.61Z" transform="translate(-16.8 -1.2)"/><circle class="q" cx="134.7" cy="154.86" r="4.11"/><circle class="q" cx="151.84" cy="156.08" r="4.11"/><circle class="q" cx="170.77" cy="139.06" r="4.11"/><circle class="q" cx="186.45" cy="138.3" r="4.11"/><circle class="q" cx="196.78" cy="120.9" r="4.11"/><circle class="q" cx="129.81" cy="166.55" r="4.11"/><circle class="q" cx="117.62" cy="164.3" r="4.11"/><circle class="q" cx="101.75" cy="161.82" r="4.11"/><circle class="q" cx="170.01" cy="151.3" r="4.11"/><path class="q" d="M225.69,126.71s-3.82-2.29-6.31,2.29c0,0-.57,4,2.1,5.54Z" transform="translate(-16.8 -1.2)"/><path class="q" d="M175.4,144.3a4.63,4.63,0,0,0,1.91-6.88l-8,4.4A5.87,5.87,0,0,0,175.4,144.3Z" transform="translate(-16.8 -1.2)"/><path class="q" d="M114.41,172.41s5-1.72,5.54,3.44L116.13,177Z" transform="translate(-16.8 -1.2)"/><path class="r" d="M226.16,128.47c-3.77,3.6-17.53,22.4-62.53,36.78-1.15.37-1,2.11.21,1.94,12.79-1.82,18.79-.32,30.42-.19L210,162.13c7.13-2.75,21.88-8.25,25.51-19.31a7.22,7.22,0,0,0-.22-5c-1.18-2.9-4.07-8.83-8.31-9.64A1,1,0,0,0,226.16,128.47Z" transform="translate(-16.8 -1.2)"/><path class="n" d="M116.58,44.08s-50,29.12-74.52,39.27c0,0-6.9,2.11-6.13,8l1.34,5s3.26,1.92,4-1.72c0,0,.57-4,6.7-8C48,86.61,108.92,55.2,116.58,44.08Z" transform="translate(-16.8 -1.2)"/><path class="n" d="M183.59,19.37S193,14,197.76,10.56c0,0,6.9-3.83,9.2-3.07,0,0,3.26-.38,5,4.79,0,0,1.72,2.49,0,7.66,0,0-1.53,3.07-4.79-1.72,0,0-4.21-5.36-9.39-2.68A48.8,48.8,0,0,1,183.59,19.37Z" transform="translate(-16.8 -1.2)"/><path class="s" d="M109.38,164.5a34.14,34.14,0,0,1,5.88,12.75" transform="translate(-16.8 -1.2)"/><path class="q" d="M82.13,200.25c.14.44,35-42.36,117.5-32.25,0,0,30.26,6.1,67.62-10.56a2.16,2.16,0,0,1,2.33,3.56c-8,7.2-26.39,17.25-67.58,19.13,0,0-29.53,2.26-61.9,5.39a59.57,59.57,0,0,0-9.74,1.77Z" transform="translate(-16.8 -1.2)"/><path class="e" d="M158.88,167.13c28.45-6,45.26-19.63,65.91-37.1a3.73,3.73,0,0,1,4.16-.28,16.19,16.19,0,0,1,4.66,4.6c3,4.54,2.64,8,0,12.41-1.09,1.81-2.67,4-9,8-2,1.23-10.74,5.73-12.87,6.63-14,5.88-18.12,4.5-23.09,4.67-1,0-2.09,0-3.13,0-4.23-.22-11.06-1.26-21,.35C162.34,166.72,156.73,167.58,158.88,167.13Z" transform="translate(-16.8 -1.2)"/><path class="e" d="M217.64,112.2S171.9,149,109.07,163.4" transform="translate(-16.8 -1.2)"/><path class="e" d="M232.51,133.88a52.52,52.52,0,0,1,28-11.28s15.78-1.91,15.88,11" transform="translate(-16.8 -1.2)"/><line class="e" x1="145.15" y1="109.71" x2="160.39" y2="136.02"/><path class="e" d="M163.65,98.64A290.17,290.17,0,0,0,182.87,135" transform="translate(-16.8 -1.2)"/><path class="e" d="M186.42,99.54s-.44,5.64,9.57,26.7" transform="translate(-16.8 -1.2)"/><line class="e" x1="172.66" y1="75.94" x2="186.7" y2="120.78"/><path class="e" d="M201.55,34.55S194,74.14,211.68,117" transform="translate(-16.8 -1.2)"/><path class="e" d="M77,203.75s36.38-47,128.25-35.5c0,0,19.25,3,33.88-1.12,0,0,26.35-3.72,40.64-16.61" transform="translate(-16.8 -1.2)"/><path class="e" d="M57.25,194.62s-.62-6,4.38-14c6.89-11,23.63-13.12,23.63-13.12,8.11-1.66,19.51.13,25.38,1.38,1.41.3,1.27-.33.51-1.56C93.3,138.25,52.34,113.78,42,105.13c-6.59-5.5-11.23-11.27-12-15.25-1.37-7.46,4.19-11.33,12.45-12.37a24.14,24.14,0,0,0,6.17-1.68c20.7-8.51,65.16-35.14,65.16-35.14,11.48-8.56,48.81-17.56,48.81-17.56,18.06-4.63,27.38-11.7,30.68-14.67a23.7,23.7,0,0,1,6.15-4C208.82.21,212.93,5,212.93,5c5.08,5.61,1.95,15.21.7,21.21a98,98,0,0,0-1,10.75L214,87.73A93.79,93.79,0,0,0,224.16,127a2.58,2.58,0,0,0,2.26,1.4h0c35.08-22.52,50-10.21,50-10.21,18.49,14.81,3.38,32.33,3.38,32.33-18.33,24.83-58.84,28.31-58.84,28.31l-76,6.7c-20.67.29-55.62,11.62-55.62,11.62C81.75,200,75.94,203.76,72,208a8.47,8.47,0,0,1-6,2.85c-9.32.18-8.76-16.26-8.75-16.27" transform="translate(-16.8 -1.2)"/><path class="t" d="M170.67,139.52c-4-8-12.65-16.66-19.72-25.66a352,352,0,0,0-40.38-43.35s-12,9.94-34.61,18c-2.35,1-28.85,10.67-20.12,37.86,19.44,11.47,39.88,22.93,59.33,34.4C115.17,160.75,156.45,149.11,170.67,139.52Z" transform="translate(-16.8 -1.2)"/><path class="q" d="M66.46,102q1.34,1.08,3.2,2.67t3.92,3.46q2.07,1.86,4.16,3.82l3.91,3.67q-.2-2-.41-4.26t-.33-4.44q-.12-2.17-.16-4t0-3.16l5.39-.86q1.65,2.39,3.55,5.37t3.84,6.23q1.94,3.24,3.85,6.51t3.56,6.15l-5.47,1q-2-3.57-4.42-7.78T86,107.87q.12,1.61.26,3.56t.33,3.91q.18,2,.34,3.74t.29,3.06l-4,.7-2.8-2.63L77,117l-3.64-3.38L70,110.52q2.06,4.4,4.26,8.71t4.13,7.95l-5.47,1q-1.54-3-3.25-6.36T66.34,115q-1.65-3.37-3.08-6.5t-2.46-5.67Z" transform="translate(-16.8 -1.2)"/><path class="q" d="M122.34,135.09q-2.05.54-4.13.95a30.45,30.45,0,0,1-4.46.52l-9.48-24.19a37.26,37.26,0,0,1,3.8-1.41q2.1-.66,4-1.09a30,30,0,0,1,4.74-.73,12.81,12.81,0,0,1,4,.32,7.72,7.72,0,0,1,3.14,1.6,7.09,7.09,0,0,1,2,3.09,4.89,4.89,0,0,1-1.31,5.38,7.18,7.18,0,0,1,4.2,1.6,7.84,7.84,0,0,1,2.11,3.22q1.37,3.87-.81,6.57T122.34,135.09Zm-8.73-14.67,2.83-.69a7.69,7.69,0,0,0,3.59-1.59,2.14,2.14,0,0,0,.38-2.4,2.65,2.65,0,0,0-2-1.82,8.66,8.66,0,0,0-3.76.23l-1.61.4q-.86.22-1.51.46Zm1.63,4.27,2.45,6.42q.65-.09,1.39-.24t1.61-.38a9.54,9.54,0,0,0,3.85-1.77,2.51,2.51,0,0,0,.6-3,3.1,3.1,0,0,0-2.22-2.11,8.58,8.58,0,0,0-4.07.21Z" transform="translate(-16.8 -1.2)"/><path class="q" d="M163.26,135.94l1.46,4.76-16.67,5-8.48-24.95,5.92-1.58,6.59,20Z" transform="translate(-16.8 -1.2)"/></svg>