<svg xmlns="http://www.w3.org/2000/svg" xmlns:xlink="http://www.w3.org/1999/xlink" viewBox="0 0 873.06 113.93"><defs><style>.cls-1{font-size:99px;font-family:Ubuntu-Bold, Ubuntu;font-weight:700;}.cls-1,.cls-5{fill:#f15a22;}.cls-2{letter-spacing:0.01em;}.cls-3{fill:url(#linear-gradient);}.cls-4{fill:#529cd5;}.cls-10,.cls-4,.cls-6,.cls-8,.cls-9{stroke:#231f20;stroke-miterlimit:10;}.cls-6{fill:url(#linear-gradient-2);}.cls-10,.cls-7{fill:#e2e9ed;}.cls-8{fill:url(#linear-gradient-3);}.cls-9{fill:none;}</style><linearGradient id="linear-gradient" x1="-25.61" y1="65.23" x2="71.39" y2="26.61" gradientTransform="matrix(0.92, -0.39, 0.39, 0.92, -3.84, 21.62)" gradientUnits="userSpaceOnUse"><stop offset="0" stop-color="#f15b24"/><stop offset="0.66" stop-color="#fded98" stop-opacity="0.92"/><stop offset="0.66" stop-color="#fded98" stop-opacity="0.93"/><stop offset="0.74" stop-color="#fced97" stop-opacity="0.98"/><stop offset="0.81" stop-color="#fced97"/><stop offset="0.83" stop-color="#fbe793"/><stop offset="0.87" stop-color="#fad788"/><stop offset="0.91" stop-color="#f7bc76"/><stop offset="0.95" stop-color="#f2975c"/><stop offset="1" stop-color="#ed683c"/><stop offset="1" stop-color="#ee6435" stop-opacity="0.87"/><stop offset="1" stop-color="#ef612f" stop-opacity="0.75"/><stop offset="1" stop-color="#f05e2a" stop-opacity="0.66"/><stop offset="1" stop-color="#f05c27" stop-opacity="0.59"/><stop offset="1" stop-color="#f15b24" stop-opacity="0.54"/><stop offset="1" stop-color="#f15a22" stop-opacity="0.51"/><stop offset="1" stop-color="#f15a22" stop-opacity="0.5"/></linearGradient><linearGradient id="linear-gradient-2" x1="38.96" y1="58.97" x2="63.57" y2="49.16" gradientTransform="matrix(0.92, -0.39, 0.39, 0.92, -3.84, 21.62)" gradientUnits="userSpaceOnUse"><stop offset="0" stop-color="#f15b24"/><stop offset="0.09" stop-color="#f2652c"/><stop offset="0.25" stop-color="#f47f40"/><stop offset="0.46" stop-color="#f7aa62"/><stop offset="0.7" stop-color="#fbe590"/><stop offset="0.73" stop-color="#fced97"/><stop offset="0.73" stop-color="#fced97" stop-opacity="0.98"/><stop offset="0.74" stop-color="#fded98" stop-opacity="0.92"/><stop offset="0.79" stop-color="#fce894" stop-opacity="0.92"/><stop offset="0.84" stop-color="#fbd88a" stop-opacity="0.93"/><stop offset="0.89" stop-color="#f7bf78" stop-opacity="0.95"/><stop offset="0.94" stop-color="#f39b5f" stop-opacity="0.97"/><stop offset="0.99" stop-color="#ee6e40"/><stop offset="1" stop-color="#ed683c"/><stop offset="1" stop-color="#ee6435" stop-opacity="0.87"/><stop offset="1" stop-color="#ef612f" stop-opacity="0.75"/><stop offset="1" stop-color="#f05e2a" stop-opacity="0.66"/><stop offset="1" stop-color="#f05c27" stop-opacity="0.59"/><stop offset="1" stop-color="#f15b24" stop-opacity="0.54"/><stop offset="1" stop-color="#f15a22" stop-opacity="0.51"/><stop offset="1" stop-color="#f15a22" stop-opacity="0.5"/></linearGradient><linearGradient id="linear-gradient-3" x1="21.46" y1="60.32" x2="21.94" y2="60.13" xlink:href="#linear-gradient"/></defs><title>MBL_Text_Logo</title><g id="MBL"><text class="cls-1" transform="translate(31.37 92.05)">Mad Bomber <tspan class="cls-2" x="622.21" y="0">L</tspan><tspan x="679.13" y="0">abs</tspan></text></g><g id="Hat"><g id="Hat_Shading" data-name="Hat Shading"><path class="cls-3" d="M22.71,27.77C22,28.74,8.58,46.29,6.38,48.22l-.12.08a9.69,9.69,0,0,0-2.87,2.3A3.25,3.25,0,0,0,3.82,55a14.68,14.68,0,0,0,3.36,1.89l.13,0c1.42.28,24.89,4.62,29.46,9,.06.06.33.53.4.57l1.42.78c.47.29.64,1.15.1,1.21-2.91.31-7.54,2.43-10.14,4.49,0,0-5.44,3.7-2.11,11.57l.06.11c.43.55,3.4,5.62,5.45,1,0-.06.58-1.57.6-1.64.32-1,2.72-7.07,19.45-15.24a.61.61,0,0,0,.18-.13,59,59,0,0,1,17.8-12s16.73-8.17,19.19-16.84c0,0,3.15-6.23-5.6-9.65a.65.65,0,0,0-.33,0c-1.16.17-7.93,1.46-12.73,9.31a.65.65,0,0,1-.73.29l-.87-.24a1.23,1.23,0,0,1-.46-.24l-5-4.76c-.11-.09-.76-1.28-.83-1.4-.57-1-3.58-4.88-7.85-16l-2.54-6.3a.65.65,0,0,1,0-.19c-.06-.83-.58-6.63-3.12-7.37l-.11,0A5.06,5.06,0,0,0,43.6,6.88a.54.54,0,0,1,0,.1c-.37.6-4.08,6.52-7.37,8.25l-.13.09L22.79,27.69Z" transform="translate(-2.05 -2.61)"/><g id="Band"><path class="cls-4" d="M37.69,66.72l4,3.19s19.72-9.84,27.55-29.08a1,1,0,0,0-.3-1.16l-4.11-3.4S54.78,54.73,37.69,66.72Z" transform="translate(-2.05 -2.61)"/><g id="Dots"><circle class="cls-5" cx="49.97" cy="58.72" r="1.4" transform="translate(-21.03 21.61) rotate(-23.02)"/><circle class="cls-5" cx="55.5" cy="56.82" r="1.4" transform="translate(-19.85 23.62) rotate(-23.02)"/><circle class="cls-5" cx="59.16" cy="48.97" r="1.4" transform="translate(-16.49 24.42) rotate(-23.02)"/><circle class="cls-5" cx="63.96" cy="46.65" r="1.4" transform="translate(-15.2 26.12) rotate(-23.02)"/><circle class="cls-5" cx="64.88" cy="39.83" r="1.4" transform="translate(-12.46 25.93) rotate(-23.02)"/><circle class="cls-5" cx="50" cy="63.02" r="1.4" transform="translate(-22.71 21.96) rotate(-23.02)"/><circle class="cls-5" cx="45.88" cy="63.94" r="1.4" transform="translate(-23.4 20.42) rotate(-23.02)"/><circle class="cls-5" cx="40.58" cy="65.27" r="1.4" transform="translate(-24.34 18.46) rotate(-23.02)"/><circle class="cls-5" cx="60.55" cy="52.91" r="1.4" transform="translate(-17.92 25.28) rotate(-23.02)"/><path class="cls-5" d="M69.28,39.67a1.5,1.5,0,0,0-1.67,1.56S68,42.56,69,42.68Z" transform="translate(-2.05 -2.61)"/><path class="cls-5" d="M55.89,51.86a1.58,1.58,0,0,0-.32-2.41l-1.93,2.44A2,2,0,0,0,55.89,51.86Z" transform="translate(-2.05 -2.61)"/><path class="cls-5" d="M40.54,68.76a1.35,1.35,0,0,1,2.19.34l-1,.87Z" transform="translate(-2.05 -2.61)"/></g></g><g id="Layer_12" data-name="Layer 12"><path class="cls-6" d="M69.66,40.16C69,41.78,67.16,49.5,55,60c-.31.27,0,.79.32.58,3.76-2.27,5.84-2.6,9.49-4.1l4.28-3.62c1.86-1.81,5.75-5.49,5.41-9.43a2.46,2.46,0,0,0-.73-1.52c-.75-.75-2.45-2.22-3.88-1.91A.32.32,0,0,0,69.66,40.16Z" transform="translate(-2.05 -2.61)"/></g><g id="Reflection"><path class="cls-7" d="M24.15,28.32S12.38,44.08,6.06,50.52c0,0-1.88,1.58-.85,3.33l1.08,1.38s1.27.17,1-1.07c0,0-.36-1.34,1-3.41C8.35,50.75,23.23,32.82,24.15,28.32Z" transform="translate(-2.05 -2.61)"/><path class="cls-7" d="M41.84,11.68S44.06,8.75,45.1,7c0,0,1.65-2.12,2.47-2.18,0,0,1-.55,2.2.84a3.05,3.05,0,0,1,1,2.4s-.07,1.16-1.73.1c0,0-2-1.12-3.29.41A16.59,16.59,0,0,1,41.84,11.68Z" transform="translate(-2.05 -2.61)"/></g><path class="cls-8" d="M37.91,67a11.61,11.61,0,0,1,3.53,3.21" transform="translate(-2.05 -2.61)"/></g><g id="Layer_9" data-name="Layer 9"><path class="cls-5" d="M34.14,81.77c.1.12,5.32-17.91,32.48-25.72,0,0,10.28-2.12,19.76-12.3a.73.73,0,0,1,1.2.8c-1.54,3.31-6,8.91-18.6,15,0,0-8.94,4.64-18.65,9.92a20.25,20.25,0,0,0-2.81,1.85Z" transform="translate(-2.05 -2.61)"/></g><g id="Hat_Outline" data-name="Hat Outline"><path class="cls-9" d="M53.75,61.2C61.85,55.53,65.3,49,69.44,40.83a1.27,1.27,0,0,1,1.27-.64,5.5,5.5,0,0,1,2.07.82,3.47,3.47,0,0,1,1.65,3.88c-.1.71-.3,1.62-1.75,3.7-.45.64-2.6,3.22-3.15,3.79-3.6,3.7-5.07,3.82-6.6,4.53-.32.15-.65.29-1,.41a27.72,27.72,0,0,0-6.53,2.9C54.78,60.61,53.14,61.62,53.75,61.2Z" transform="translate(-2.05 -2.61)"/><path class="cls-9" d="M64.84,36.2A101.3,101.3,0,0,1,37.67,66.65" transform="translate(-2.05 -2.61)"/><path class="cls-9" d="M72.37,41a17.86,17.86,0,0,1,7.25-7.25s4.68-2.7,6.43,1.33" transform="translate(-2.05 -2.61)"/><line class="cls-9" x1="45.19" y1="40.58" x2="53.46" y2="46.79"/><path class="cls-9" d="M46.14,39.13A98.66,98.66,0,0,0,57,47.95" transform="translate(-2.05 -2.61)"/><path class="cls-9" d="M53.38,36.39s.61,1.82,6.55,7.08" transform="translate(-2.05 -2.61)"/><line class="cls-9" x1="49.31" y1="26.36" x2="59.67" y2="38.52"/><path class="cls-9" d="M49.47,14A54,54,0,0,0,63.6,38.48" transform="translate(-2.05 -2.61)"/><path class="cls-9" d="M33,83.54S38.13,64,68.41,55.38c0,0,6.42-1.62,10.45-4.86,0,0,7.75-4.67,10.51-10.6" transform="translate(-2.05 -2.61)"/><path class="cls-9" d="M25.6,83.31a8.23,8.23,0,0,1-.49-5c.69-4.37,5.65-7.25,5.65-7.25,2.32-1.6,6.12-2.55,8.12-2.94.48-.09.35-.27,0-.56-9.45-6.72-25.52-8.93-29.92-10.26-2.79-.85-5-2-5.77-3.18C1.73,52,3,50.06,5.4,48.64a8.21,8.21,0,0,0,1.71-1.34c5.35-5.42,15.72-19.66,15.72-19.66,2.45-4.2,12.94-12,12.94-12,5-3.85,7-7.3,7.65-8.67A8.06,8.06,0,0,1,44.8,4.89c2.38-2.57,4.31-1.6,4.31-1.6,2.34,1.08,2.63,4.5,3,6.54a33.32,33.32,0,0,0,1.12,3.5L60.44,29A31.89,31.89,0,0,0,68.84,40a.88.88,0,0,0,.89.14h0C77.72,28.39,84,30.26,84,30.26c7.76,2.18,5.36,9.67,5.36,9.67C86.94,50.13,74.72,56.61,74.72,56.61L51.85,68.81c-6.43,2.84-15.86,11-15.86,11a15.32,15.32,0,0,0-4,5.71,2.88,2.88,0,0,1-1.5,1.69c-2.89,1.29-4.9-3.92-4.9-3.93" transform="translate(-2.05 -2.61)"/></g><g id="Card"><path class="cls-10" d="M53.77,51c-2.32-2-6.17-3.53-9.58-5.41a119.68,119.68,0,0,0-18.4-8.19,42,42,0,0,1-8.44,10.23c-.6.62-7.61,7.18-1.26,14.52C23.7,63.14,31.62,64,39.23,65,39.23,65,50.59,55.88,53.77,51Z" transform="translate(-2.05 -2.61)"/><g id="MBL-2" data-name="MBL"><path class="cls-5" d="M16.19,51.33l1.26.56,1.57.74,1.69.84,1.59.81-.72-1.47q-.38-.78-.74-1.54c-.24-.51-.45-1-.64-1.42s-.35-.82-.46-1.12l1.36-1q.82.64,1.79,1.46t2,1.72l2,1.81,1.86,1.72-1.4,1.05L25,53.34Q23.74,52.15,22.39,51L23,52.21l.65,1.35.62,1.29.51,1-1,.76-1.13-.58-1.4-.71-1.47-.75-1.35-.68q1.19,1.32,2.4,2.58L23,58.83l-1.35,1.06L19.93,58l-1.86-2q-.93-1-1.77-1.94t-1.49-1.73Z" transform="translate(-2.05 -2.61)"/><path class="cls-5" d="M38,55.43q-.53.41-1.08.78a8.37,8.37,0,0,1-1.24.68L28.87,50a9,9,0,0,1,.86-.88q.5-.45,1-.8A7.49,7.49,0,0,1,32,47.58a3.63,3.63,0,0,1,1.26-.34,2.79,2.79,0,0,1,1.21.18,3.14,3.14,0,0,1,1.14.78,1.85,1.85,0,0,1,.52,1.9,2.46,2.46,0,0,1,1.53.05,3.38,3.38,0,0,1,1.17.81,2.47,2.47,0,0,1,.83,2.22A4,4,0,0,1,38,55.43Zm-5-3.8.72-.54a2,2,0,0,0,.8-.92.84.84,0,0,0-.29-.83,1.07,1.07,0,0,0-.9-.37,2.3,2.3,0,0,0-1.07.49l-.41.31a4.27,4.27,0,0,0-.37.32Zm1.19,1.21,1.77,1.82.37-.23.42-.31a2.58,2.58,0,0,0,.86-1,1,1,0,0,0-.32-1.06,1.23,1.23,0,0,0-1-.44,2.36,2.36,0,0,0-1.18.53Z" transform="translate(-2.05 -2.61)"/><path class="cls-5" d="M50.39,50.67,51.73,52l-4.21,3.24-7.28-7.13,1.48-1.08,5.84,5.75Z" transform="translate(-2.05 -2.61)"/></g></g></g></svg>